<?xml version="1.0" encoding="iso-8859-1"?>
<!-- Generator: Adobe Illustrator 19.0.0, SVG Export Plug-In . SVG Version: 6.00 Build 0)  -->
<svg version="1.1" id="Capa_1" xmlns="http://www.w3.org/2000/svg" xmlns:xlink="http://www.w3.org/1999/xlink" x="0px" y="0px"
	 viewBox="0 0 501.6 501.6" style="enable-background:new 0 0 501.6 501.6;" xml:space="preserve">
<g>
	<polygon style="fill:#6316d3;" points="261.6,303.6 233.2,303.6 216,346 279.6,346 	"/>
	<ellipse style="fill:#6316d3;" cx="250.8" cy="154.4" rx="124.8" ry="148"/>
</g>
<path style="fill:#f9ad48;" d="M250.8,0c-72.4,0-131.2,69.2-131.2,154.4c0,74.8,45.6,137.6,105.6,151.6L210,343.6
	c-0.8,2-0.4,4.4,0.8,6s3.2,2.8,5.2,2.8h21.2c-10,19.6-16.8,49.6,7.6,68c26.8,20.4-8,70.4-8.4,70.8c-2,2.8-1.2,6.8,1.6,9.2
	c1.2,0.8,2.4,1.2,3.6,1.2c2,0,4-0.8,5.2-2.8c1.6-2.4,42.4-60.8,5.6-88.8c-22.8-17.6-6.4-48.4-0.4-57.6h27.2c2,0,4.4-1.2,5.6-2.8
	c1.2-2,1.6-4,0.4-6l-15.2-36c63.2-11.2,112-75.2,112-152.8C382,69.2,323.2,0,250.8,0z M225.6,339.6l12.4-31.2
	c4,0.4,8.4,0.8,12.4,0.8c2,0,4,0,6,0l13.2,30.4L225.6,339.6L225.6,339.6z M250.8,296c-65.2,0-118-63.6-118-141.6
	s52.8-141.2,118-141.2s118,63.6,118,141.6C368.8,232.4,316,296,250.8,296z"/>
<g>
</g>
<g>
</g>
<g>
</g>
<g>
</g>
<g>
</g>
<g>
</g>
<g>
</g>
<g>
</g>
<g>
</g>
<g>
</g>
<g>
</g>
<g>
</g>
<g>
</g>
<g>
</g>
<g>
</g>
</svg>
